# xmcd
#
# Track frame offsets:
#	150
#	12339
#	22173
#	38527
#	52820
#	65628
#	75130
#	87530
#	99701
#	116210
#
# Disc length: 1754 seconds
#
# Revision: 0
# Processed by: cddbd v1.5.2PL0 Copyright (c) Steve Scherf et al.
# Submitted via: audiograbber 1.83.01
#
DISCID=7806d80a
DTITLE=Merle Haggard - Sing Me Back Home
DYEAR=2005
DGENRE=Country
TTITLE0=Okie From Muskogee
TTITLE1=Mama Tried
TTITLE2=Hungry Eyes
TTITLE3=Branded Man
TTITLE4=Sing Me Back Home
TTITLE5=The Legend Of Bonnie and Clyde
TTITLE6=If We Make It Through December
TTITLE7=Everybody's Had The Blues
TTITLE8=Daddy Frank (The Guitar Man)
TTITLE9=Twinkle Twinkle Lucky Star
EXTD=
EXTT0=
EXTT1=
EXTT2=
EXTT3=
EXTT4=
EXTT5=
EXTT6=
EXTT7=
EXTT8=
EXTT9=
PLAYORDER=
